<?xml version="1.0" encoding="utf-8"?>
<!-- Generator: Adobe Illustrator 16.0.0, SVG Export Plug-In . SVG Version: 6.00 Build 0)  -->
<!DOCTYPE svg PUBLIC "-//W3C//DTD SVG 1.1//EN" "http://www.w3.org/Graphics/SVG/1.1/DTD/svg11.dtd">
<svg version="1.1" id="Layer_1" xmlns="http://www.w3.org/2000/svg" xmlns:xlink="http://www.w3.org/1999/xlink" x="0px" y="0px"
	 width="314.824px" height="337.672px" viewBox="0 0 314.824 337.672" enable-background="new 0 0 314.824 337.672"
	 xml:space="preserve">
<path fill="#010101" d="M313.291,145.054c-3.099-24.167-9.419-43.132-21.817-65.46c-12.414-22.369-28.159-39.932-46.798-52.201
	C218.617,10.24,183.096,0,149.654,0c-37.236,0-72.596,14.406-99.566,40.564C22.793,67.036,7.761,102.059,7.761,139.183
	c0,38.197,15.832,73.064,44.58,98.18c2.804,2.449,17.041,14.403,35.716,21.64c0.01,0.004,0.021,0.008,0.032,0.012
	c1.17,0.453,2.356,0.89,3.56,1.302c4.206,1.438,8.736,2.687,13.015,3.842c0.658,0.177,1.332,0.352,2.015,0.525
	c0.271,0.068,0.549,0.137,0.824,0.205c0.388,0.097,0.779,0.193,1.176,0.289c0.387,0.094,0.78,0.187,1.176,0.28
	c0.276,0.064,0.558,0.129,0.839,0.193c0.46,0.106,0.921,0.213,1.395,0.318c0.012,0.002,0.024,0.005,0.036,0.008l0,0
	c0.698,0.155,1.402,0.311,2.132,0.466c12.009,2.545,24.117,3.835,35.987,3.835c26.352,0,47.33-5.602,62.351-16.649
	c14.295-10.515,21.244-24.374,21.244-42.369c0-13.364-4.019-24.158-11.944-32.082c-8.599-8.599-23.471-15.814-44.203-21.445
	l-10.308-2.799c-0.612-0.146-6.795-1.635-13.56-3.632c-0.383-0.113-0.862-0.251-1.409-0.409c-2.136-0.617-5.364-1.548-7.955-2.444
	c-2.475-0.855-5.72-2.021-8.858-3.456c-0.935-0.427-1.821-0.871-2.633-1.32c-9.369-5.177-10.768-11.551-10.768-14.89
	c0-7.161,4.009-12.951,11.289-16.301c7.614-3.505,18.523-4.241,26.334-4.241c3.12,0,6.352,0.142,9.682,0.413
	c0.004,0.003,0.008,0.006,0.011,0.009c0.47,0.038,0.949,0.087,1.424,0.13c1.015,0.094,2.035,0.194,3.068,0.312
	c0.408,0.046,0.815,0.089,1.228,0.139c1.547,0.189,3.11,0.401,4.694,0.642c5.054,0.766,10.292,1.796,15.705,3.109
	c1.305,0.314,2.617,0.633,3.948,0.985c5.003,1.31,9.774,2.788,14.176,4.389l1.229,0.453c0.553,0.205,1.219,0.452,1.936,0.71
	c0.527,0.19,1.852,0.661,2.802-0.167c1.065-0.928,1.156-3.436,1.156-3.436l2.137-26.784c0,0,0.133-1.377,0.126-1.889
	c-0.003-0.187-0.014-0.382-0.039-0.566c-0.079-0.566-0.297-1.101-0.63-1.493c-0.257-0.301-0.513-0.543-0.74-0.73
	c-0.253-0.208-1.089-0.69-1.089-0.69c-0.271-0.15-0.547-0.298-0.827-0.443c-2.984-1.544-6.414-2.759-7.466-3.119
	c-4.627-1.574-9.771-2.998-15.282-4.229l-0.24-0.045c-0.318-0.058-0.582-0.107-0.844-0.164c-5.003-1.085-10.092-1.941-15.232-2.618
	c0.003-0.011,0.005-0.021,0.008-0.032c-0.604-0.08-1.215-0.136-1.821-0.21c-0.621-0.076-1.244-0.146-1.867-0.216
	c-1.488-0.168-2.979-0.324-4.476-0.458c-0.162-0.015-0.323-0.036-0.485-0.05c-0.003,0.003-0.006,0.006-0.009,0.009
	c-5.714-0.498-11.479-0.773-17.277-0.773c-24.703,0-44.495,5.325-58.826,15.826c-13.583,9.955-20.187,22.722-20.187,39.03
	c0,13.388,4.243,24.475,12.612,32.954c9.018,9.144,23.826,16.629,44.011,22.251l14.609,4.177c6.222,1.627,11.196,3.045,15.205,4.333
	l0.584,0.185c2.102,0.659,6.476,2.032,11.408,4.478c1.097,0.543,2.195,1.143,3.258,1.722l0.406,0.222
	c3.821,2.081,6.237,4.792,7.063,6.065c1.711,2.642,2.552,5.649,2.433,8.697c-0.1,2.501-1.253,11.024-11.933,15.707
	c-5.941,2.604-18.753,4.723-28.56,4.723c-10.109,0-21.162-1.353-32.853-4.021c-1.763-0.405-7.219-1.921-13.212-4.332
	c0-0.002,0-0.003,0-0.004c-0.749-0.301-1.505-0.615-2.263-0.942c-0.034-0.015-0.067-0.029-0.101-0.044
	c-0.753-0.325-1.508-0.663-2.26-1.018c-0.498-0.234-0.98-0.468-1.455-0.7c-0.248-0.121-0.487-0.242-0.728-0.362
	c-0.205-0.103-0.411-0.206-0.612-0.309c-0.309-0.157-0.613-0.314-0.912-0.471c-0.104-0.055-0.206-0.108-0.309-0.162
	c-0.348-0.184-0.691-0.367-1.025-0.55c-5.825-3.174-9.641-6.119-12.651-8.668c-21.447-18.155-33.258-43.382-33.258-71.034
	c0-55.112,47.801-101.672,104.382-101.672c25.611,0,54.815,8.328,74.401,21.216c13.522,8.9,25.17,22.044,34.62,39.067
	c8.615,15.518,14.532,29.633,17.41,52.027c5.382,42.011-6.982,83.806-33.075,111.803c-26.486,28.414-66.649,38.538-95.404,38.538
	c-53.501,0-99.423-20.763-129.308-58.465c-1.327-1.672-2.618-3.37-3.859-5.077c-0.225-0.31-1.029-1.288-1.784-1.145
	c-0.642,0.122-1.38,1.948-1.38,1.948L0.76,260.961c-0.139,0.319-0.564,1.578-0.64,1.896c-0.208,1.045-0.153,1.289,0.228,2.051
	c0.29,0.581,1.07,1.837,2.32,3.476c1.262,1.655,2.436,3.138,3.588,4.532c3.224,3.911,6.66,7.705,10.214,11.28
	c29.786,29.966,69.271,48.226,114.188,52.805c6.145,0.449,11.716,0.671,16.948,0.671c17.781,0,79.191-3.64,122.842-50.474
	C304.063,251.137,320.079,198,313.291,145.054z"/>
</svg>
