<?xml version="1.0" encoding="utf-8"?>
<!-- Generator: Adobe Illustrator 16.0.0, SVG Export Plug-In . SVG Version: 6.00 Build 0)  -->
<!DOCTYPE svg PUBLIC "-//W3C//DTD SVG 1.1//EN" "http://www.w3.org/Graphics/SVG/1.1/DTD/svg11.dtd">
<svg version="1.1" id="Layer_1" xmlns="http://www.w3.org/2000/svg" xmlns:xlink="http://www.w3.org/1999/xlink" x="0px" y="0px"
	 width="306.241px" height="329.671px" viewBox="0 0 306.241 329.671" enable-background="new 0 0 306.241 329.671"
	 xml:space="preserve">
<g>
	<path fill="#010101" d="M304.739,141.562c-3.029-23.626-9.214-42.177-21.347-64.027c-12.098-21.799-27.406-38.89-45.499-50.801
		C212.462,9.994,177.761,0,145.071,0c-36.189,0-70.561,14.005-96.78,39.436C21.779,65.147,7.179,99.15,7.179,135.182
		c0,37.026,15.346,70.824,43.211,95.167c1.488,1.3,6.31,5.367,13.332,9.928c0-0.002,0-0.006,0-0.008
		c5.037,3.271,11.207,6.797,18.094,9.736c0.053,0.021,0.105,0.045,0.158,0.066c0.959,0.408,1.932,0.805,2.918,1.188l0.012,0.006
		l0.047,0.018c0.583,0.225,1.147,0.438,1.701,0.641c0.567,0.207,1.137,0.41,1.712,0.607c0.373,0.127,0.763,0.246,1.142,0.371
		c1.436,0.473,2.9,0.93,4.386,1.367c2.417,0.711,4.861,1.385,7.233,2.025c0.465,0.125,0.938,0.25,1.417,0.373
		c0.186,0.047,0.372,0.096,0.558,0.143l0.787,0.195c0.379,0.094,0.76,0.189,1.147,0.281c0.38,0.092,0.76,0.182,1.146,0.273
		l0.473,0.109c0,0,0.485,0.111,0.551,0.127c0.182,0.041,0.363,0.084,0.545,0.125c0.169,0.039,0.886,0.199,0.986,0.223
		c0.581,0.127,1.168,0.256,1.772,0.385c11.732,2.486,23.561,3.747,35.154,3.747c25.482,0,45.663-5.339,59.98-15.872
		c13.199-9.707,19.615-22.512,19.615-39.146c0-12.265-3.624-22.108-10.772-29.253c-8.101-8.102-22.374-14.968-42.424-20.414
		l-10.248-2.783c-0.928-0.222-7.023-1.701-13.703-3.671c-0.377-0.112-0.847-0.247-1.383-0.401c-0.723-0.208-2.213-0.666-3.961-1.21
		c-1.014-0.316-4.78-1.461-6.12-1.866c-1.758-0.531-3.997-1.255-6.127-2.132c-0.741-0.305-1.479-0.585-2.162-0.897
		c-1.024-0.468-2.371-1.165-3.273-1.663c-11.167-6.17-13.017-14.165-13.017-18.385c0-8.686,5.514-15.752,14.168-19.734
		c8.273-3.808,20.796-4.607,29.007-4.607c3.171,0,6.538,0.144,10.008,0.426l0.791,0.064c0,0,1.512,0.156,1.888,0.193
		c0.713,0.07,2.299,0.245,2.299,0.245c0.301,0.033,0.604,0.067,0.907,0.104c0.926,0.113,1.837,0.234,2.737,0.359
		c0.703,0.097,1.4,0.196,2.08,0.3c0.15,0.023,0.303,0.051,0.453,0.074c0.888,0.138,1.782,0.285,2.681,0.438
		c0.579,0.099,1.16,0.202,1.743,0.307c0.805,0.145,1.609,0.293,2.424,0.452c0.346,0.068,0.689,0.133,1.037,0.203
		c0.444,0.089,0.891,0.188,1.336,0.28c0.639,0.133,1.273,0.26,1.918,0.401c1.48,0.323,2.965,0.662,4.453,1.022
		c1.328,0.319,2.67,0.645,4.03,1.006c4.716,1.235,9.243,2.619,13.466,4.119c0.23,0.081,0.824,0.235,1.398,0.25
		c0.924,0.024,1.307-0.623,1.439-1.044c0.227-0.719,0.283-1.584,0.283-1.584l1.646-20.655c0,0,0.311-2.328-0.242-3.458
		c-0.186-0.376-0.506-0.682-0.852-0.926c-0.561-0.393-2.166-1.064-2.526-1.219c-1.845-0.786-3.503-1.371-4.161-1.596
		c-3.787-1.289-7.945-2.473-12.377-3.531c-0.685-0.164-3.244-0.717-3.549-0.783c-1.183-0.256-2.373-0.498-3.564-0.731
		c-1.879-0.363-3.82-0.696-5.789-1.012c-1.821-0.292-3.665-0.57-5.549-0.818l-0.977-0.128l-1.156-0.152
		c-0.44-0.052-0.883-0.103-1.325-0.152l-0.148-0.017c-0.881-0.1-1.705-0.188-2.487-0.268c-0.456-0.046-2.382-0.221-2.382-0.221
		c-0.273-0.024-0.547-0.047-0.819-0.07c-5.489-0.457-10.904-0.688-16.11-0.688c-23.834,0-42.831,5.064-56.462,15.052
		c-12.482,9.148-18.551,20.86-18.551,35.804c0,12.298,3.855,22.44,11.459,30.143c8.522,8.641,22.732,15.775,42.237,21.208
		l14.591,4.172c5.251,1.372,9.634,2.602,13.317,3.736c0.712,0.219,1.396,0.435,2.057,0.646c0,0,1.329,0.418,1.796,0.568
		c1.594,0.513,3.816,1.27,6.386,2.337c1.37,0.569,2.839,1.227,4.363,1.981c1.15,0.569,3.354,1.771,3.354,1.771l0.044,0.023
		l0.406,0.222c0.801,0.437,1.58,0.912,2.327,1.41c1.009,0.673,2,1.336,2.868,2.042c3.385,2.754,5.43,5.944,6.26,7.918
		c0.871,2.072,1.261,4.348,1.186,7.173c-0.044,1.659-0.674,5.961-3.332,9.96c-2.293,3.451-6.125,6.541-12.056,9.142
		c-2.56,1.122-6.18,2.147-10.266,2.978c-6.248,1.27-13.588,2.082-19.901,2.082c-10.408,0-21.761-1.387-33.742-4.121
		c-0.688-0.158-2.069-0.518-3.892-1.061c-1.851-0.553-4.156-1.295-6.686-2.219c-0.004-0.002-0.007-0.003-0.011-0.006
		c-0.762-0.277-1.543-0.572-2.338-0.884c-0.295-0.116-0.59-0.231-0.889-0.352c0,0-1.275-0.501-2.601-1.069
		c-0.451-0.193-1.097-0.493-1.578-0.719c-0.374-0.177-1.094-0.523-1.315-0.629c-0.095-0.046-0.191-0.092-0.287-0.138
		c-0.191-0.091-0.825-0.4-1.104-0.54c-0.201-0.102-0.475-0.238-0.862-0.433c-0.002-0.001-0.005-0.003-0.008-0.004
		c-0.314-0.16-0.627-0.323-0.937-0.484l-0.025-0.015l-0.286-0.148c-0.011-0.006-0.021-0.012-0.032-0.018
		c-0.366-0.193-0.715-0.381-1.055-0.565c-0.023-0.013-0.046-0.026-0.069-0.038c-0.564-0.309-1.108-0.614-1.638-0.918
		c-0.068-0.039-0.136-0.078-0.203-0.117c-0.555-0.321-1.088-0.641-1.606-0.957c-0.262-0.158-0.512-0.316-0.765-0.473
		c-0.24-0.15-0.479-0.301-0.71-0.449c-0.293-0.188-0.582-0.373-0.863-0.559c-0.155-0.103-0.305-0.203-0.454-0.305
		c-1.065-0.712-2.048-1.408-2.96-2.086c-0.052-0.039-0.106-0.079-0.158-0.117c-0.296-0.223-0.584-0.441-0.866-0.66
		c-0.059-0.044-0.115-0.088-0.173-0.133c-1.03-0.801-1.979-1.574-2.853-2.314c-22.359-18.928-34.673-45.24-34.673-74.087
		c0-57.28,49.633-105.671,108.381-105.671c26.339,0,56.407,8.587,76.6,21.875c14.066,9.258,26.151,22.873,35.918,40.467
		c8.845,15.93,14.921,30.43,17.882,53.458c5.531,43.178-7.223,86.183-34.117,115.041c-27.36,29.352-68.734,39.81-98.331,39.81
		c-54.397,0-101.18-21.029-131.85-59.237c-0.198-0.248-0.906-1.244-1.886-1.184c-0.409,0.025-0.786,0.24-1.03,0.521
		c-0.351,0.402-0.809,1.281-0.809,1.281l-7.064,15.811c0,0-0.21,0.434-0.322,1.006c-0.052,0.268-0.059,0.564-0.062,0.865
		c-0.007,0.939,0.587,1.807,0.754,2.053c0.202,0.298,0.41,0.547,0.512,0.68c1.233,1.617,2.375,3.06,3.491,4.41
		c3.145,3.815,6.497,7.518,9.966,11.008c29.115,29.29,67.737,47.146,111.7,51.64c6.054,0.441,11.485,0.656,16.6,0.656
		c17.374,0,77.367-3.548,119.917-49.201C295.752,245.27,311.378,193.341,304.739,141.562z"/>
	<path opacity="0.5" fill="#010101" d="M103.082,256.807l0.017,0.004c-0.669-0.17-1.33-0.342-1.975-0.516
		C101.76,256.467,102.417,256.637,103.082,256.807z"/>
</g>
</svg>
