<?xml version="1.0" encoding="utf-8"?>
<!-- Generator: Adobe Illustrator 16.0.0, SVG Export Plug-In . SVG Version: 6.00 Build 0)  -->
<!DOCTYPE svg PUBLIC "-//W3C//DTD SVG 1.1//EN" "http://www.w3.org/Graphics/SVG/1.1/DTD/svg11.dtd">
<svg version="1.1" id="Layer_1" xmlns="http://www.w3.org/2000/svg" xmlns:xlink="http://www.w3.org/1999/xlink" x="0px" y="0px"
	 width="240.945px" height="257.692px" viewBox="0 0 240.945 257.692" enable-background="new 0 0 240.945 257.692"
	 xml:space="preserve">
<path d="M239.781,110.766c-2.359-18.399-7.165-32.829-16.59-49.805c-9.503-17.122-21.601-30.595-35.957-40.044
	C167.338,7.819,140.253,0,114.788,0c-28.625,0-55.804,11.07-76.53,31.172C17.252,51.543,5.685,78.515,5.685,107.118
	c0,30.022,12.849,56.958,34.421,75.804c3.797,3.318,15.676,12.726,30.515,17.81c3.121,1.068,6.423,1.986,9.863,2.914
	c2.424,0.652,4.859,1.223,7.298,1.74c9.112,1.93,18.31,2.922,27.437,2.922c20.428,0,36.822-4.44,48.729-13.197
	c11.879-8.737,17.656-20.246,17.656-35.179c0-11.202-3.449-20.33-10.256-27.135c-6.941-6.941-18.605-12.673-34.674-17.038
	l-14.371-3.903h0.375c-6.096-1.684-10.387-3.1-13.012-4.294c-5.125-2.33-6.201-5.671-6.201-8.065c0-3.4,1.752-6.072,5.066-7.729
	c2.951-1.475,7.435-2.193,13.708-2.193c7.51,0,15.925,1.13,25.033,3.338c0.926,0.225,1.851,0.448,2.79,0.695
	c3.587,0.942,6.902,1.971,9.943,3.08c2.767,1.01,7.028,2.714,9.31,2.449c1.335-0.155,2.188-1.242,2.301-2.648
	c0-0.002,0-0.002,0-0.005l2.145-26.886c0-0.002,0-0.004,0-0.005c0.114-1.47-0.081-3.435-0.904-4.778
	c-0.82-1.342-2.269-2.061-3.556-2.778c-2.499-1.391-5.572-2.524-6.911-2.98c-3.563-1.213-7.479-2.3-11.739-3.25
	c-0.27-0.061-0.549-0.1-0.82-0.159c-10.043-2.18-20.546-3.304-31.252-3.304c-19.215,0-34.737,4.235-46.137,12.588
	c-11.365,8.328-16.89,19.036-16.89,32.736c0,11.207,3.606,20.544,10.72,27.753c7.247,7.345,18.864,13.28,34.525,17.642l10.696,3.057
	c8.719,2.283,14.337,4.078,17.13,5.474c3.315,1.657,5.066,4.332,5.066,7.729c0,2.527-0.994,6.003-5.726,8.211
	c-3.352,1.563-8.319,2.323-15.185,2.323c-7.048,0-14.734-0.946-22.933-2.819c-1.43-0.328-6.922-1.884-12.027-4.285
	c-6.333-2.98-9.775-5.754-11.833-7.496C51.854,143.291,43.43,126.16,43.43,107.118c0-37.604,32.678-69.372,71.358-69.372
	c17.835,0,38.127,5.771,51.696,14.701c9.215,6.064,17.188,15.092,23.706,26.832c6.019,10.845,10.15,20.699,12.151,36.288
	c3.754,29.286-4.806,58.359-22.898,77.773c-18.285,19.617-46.164,26.607-66.156,26.607c-38.548,0-70.438-15.295-90.732-40.896
	c-1.495-1.885-2.93-3.821-4.298-5.816c-0.345-0.499-1.869-2.374-2.337-2.842c-0.624-0.623-1.584-1.196-2.554-0.794
	c-1.645,0.682-2.74,3.116-2.74,3.116l-4.387,9.82L1,194.261c-0.211,0.473-0.708,1.908-0.813,2.468
	c-0.361,1.804-0.221,3.154,0.607,4.812c0.598,1.196,1.713,2.712,2.208,3.36c0.896,1.175,1.811,2.337,2.754,3.479
	c2.453,2.975,5.051,5.849,7.801,8.615c22.665,22.802,53.056,36.75,86.833,40.183c4.258,0.313,8.552,0.515,12.897,0.515
	c13.553,0,60.37-2.784,93.767-38.618C232.713,191.546,244.947,151.057,239.781,110.766z"/>
</svg>
