<?xml version="1.0" encoding="utf-8"?>
<!-- Generator: Adobe Illustrator 16.0.0, SVG Export Plug-In . SVG Version: 6.00 Build 0)  -->
<!DOCTYPE svg PUBLIC "-//W3C//DTD SVG 1.1//EN" "http://www.w3.org/Graphics/SVG/1.1/DTD/svg11.dtd">
<svg version="1.1" id="Layer_1" xmlns="http://www.w3.org/2000/svg" xmlns:xlink="http://www.w3.org/1999/xlink" x="0px" y="0px"
	 width="320.819px" height="343.672px" viewBox="0 0 320.819 343.672" enable-background="new 0 0 320.819 343.672"
	 xml:space="preserve">
<path id="semi_bold_rounded" fill="#010101" d="M319.262,147.672c-3.15-24.572-9.573-43.849-22.17-66.536
	c-12.652-22.797-28.726-40.713-47.771-53.25C222.792,10.425,186.654,0,152.65,0C114.63,0,78.528,14.707,50.995,41.411
	C23.112,68.452,7.757,104.24,7.757,142.183c0,39.075,16.196,74.745,45.606,100.438c3.056,2.671,19.361,16.354,40.309,23.532
	c4.283,1.465,8.872,2.73,13.206,3.9c2.985,0.803,6.175,1.563,9.75,2.323c12.214,2.588,24.533,3.9,36.611,3.9
	c27.006,0,48.581-5.798,64.128-17.232c15.118-11.12,22.467-25.771,22.467-44.786c0-14.188-4.314-25.696-12.823-34.203
	c-8.974-8.974-24.295-16.449-45.538-22.219l-10.353-2.811c0,0-6.355-1.507-13.452-3.602c-1.891-0.558-6.064-1.715-9.231-2.811
	c-2.926-1.011-5.813-2.08-8.592-3.349c-0.869-0.397-1.678-0.802-2.429-1.217c-7.367-4.071-9.219-8.965-9.219-12.264
	c0-6.167,3.567-10.825,9.543-13.576c6.313-2.906,15.888-3.966,25.08-3.966c10.517,0,22.329,1.571,35.105,4.669
	c1.287,0.31,2.578,0.623,3.888,0.97c4.922,1.289,9.607,2.74,13.917,4.308l1.216,0.449c1.434,0.532,3.231,1.198,4.941,1.735
	c0.556,0.174,2.285,0.311,3.339-0.348c1.276-0.798,1.339-3.034,1.339-3.034l2.574-32.287c0.001-0.015,0.002-0.03,0.004-0.045
	c0.123-1.566-0.152-3.296-0.655-4.115c-0.477-0.781-1.669-1.438-2.931-2.135l-0.46-0.255c-3.356-1.869-7.566-3.363-8.777-3.777
	c-4.729-1.609-9.979-3.063-15.599-4.317c-0.135-0.03-0.275-0.054-0.416-0.08c-0.228-0.041-0.455-0.083-0.681-0.132
	c-13.507-2.932-27.571-4.418-41.801-4.418c-25.354,0-45.742,5.52-60.599,16.406c-14.409,10.56-21.414,24.119-21.414,41.45
	c0,14.204,4.534,26,13.477,35.061c9.391,9.521,24.646,17.27,45.342,23.034l14.622,4.181c6.128,1.603,11.111,3.021,15.079,4.296
	c1.656,0.532,6.314,1.884,11.578,4.493c1.185,0.587,2.425,1.271,3.562,1.891c3.289,1.791,5.349,4.089,5.979,5.062
	c1.444,2.229,2.043,4.664,1.953,6.948c-0.149,3.771-2.25,9.618-10.14,13.077c-5.168,2.266-17.385,4.471-27.354,4.471
	c-9.883,0-20.712-1.327-32.185-3.945c-2.133-0.489-9.863-2.664-17.227-6.13c-8.495-4-13.376-7.702-17.03-10.796
	c-20.762-17.576-32.197-41.99-32.197-68.745c0-53.486,46.427-98.672,101.382-98.672c25.065,0,53.622,8.134,72.752,20.722
	c13.112,8.63,24.434,21.421,33.646,38.018c8.443,15.208,14.241,29.038,17.058,50.953c5.27,41.136-6.803,82.023-32.294,109.376
	c-25.83,27.71-65.085,37.583-93.21,37.583c-52.566,0-97.653-20.359-126.957-57.328c-1.893-2.385-3.71-4.824-5.41-7.264
	c-0.208-0.299-0.416-0.598-0.621-0.896c-0.071-0.104-1.145-1.76-2.207-1.688c-1.123,0.076-2.055,2.141-2.055,2.141l-12.336,27.61
	c-0.199,0.443-0.738,2.028-0.833,2.486c-0.338,1.69-0.225,2.623,0.477,4.026c0.471,0.944,1.449,2.421,2.617,3.953
	c1.287,1.688,2.484,3.2,3.661,4.624c3.282,3.981,6.779,7.844,10.399,11.484c30.282,30.465,70.398,49.023,116.012,53.674
	c6.303,0.462,11.947,0.687,17.252,0.687c18.088,0,80.561-3.709,125.036-51.428C309.854,255.539,326.163,201.493,319.262,147.672z"/>
</svg>
